<?xml version="1.0" standalone="no"?>
<!DOCTYPE svg PUBLIC "-//W3C//DTD SVG 20010904//EN"
 "http://www.w3.org/TR/2001/REC-SVG-20010904/DTD/svg10.dtd">
<svg version="1.0" xmlns="http://www.w3.org/2000/svg"
 width="256.000000pt" height="256.000000pt" viewBox="0 0 256.000000 256.000000"
 preserveAspectRatio="xMidYMid meet">
<metadata>
Created by potrace 1.14, written by Peter Selinger 2001-2017
</metadata>
<g transform="translate(0.000000,256.000000) scale(0.100000,-0.100000)"
fill="#000000" stroke="none">
<path d="M1215 2396 c-42 -19 -71 -54 -86 -103 -10 -36 -16 -43 -38 -44 -14 0
-33 -2 -41 -4 -8 -1 -34 -6 -58 -9 -151 -24 -342 -120 -466 -236 -43 -40 -54
-45 -97 -47 -27 0 -60 -1 -74 -2 -59 -2 -85 -82 -40 -126 20 -21 34 -25 85
-25 33 0 60 -4 60 -9 0 -5 -84 -176 -186 -380 -120 -239 -192 -371 -201 -371
-12 0 -14 -8 -8 -37 27 -149 219 -261 447 -261 158 0 297 47 378 128 61 61
104 170 67 170 -7 0 -99 174 -205 386 -191 380 -193 386 -175 407 69 81 144
139 239 186 110 54 285 93 301 68 8 -12 11 -1635 3 -1646 -3 -5 -36 -8 -75 -8
l-70 1 -3 -77 -3 -77 -149 0 -150 0 0 -75 0 -75 607 2 607 3 0 70 1 70 -153 3
-152 3 0 73 c0 50 -4 75 -12 78 -7 2 -41 3 -75 2 l-63 -2 0 833 0 834 48 -5
c175 -18 317 -87 446 -215 l68 -68 -192 -385 c-121 -244 -197 -386 -207 -386
-21 0 -8 -66 22 -112 83 -126 236 -190 439 -184 115 3 123 4 192 29 109 39
191 105 225 181 22 48 24 86 6 86 -10 0 -387 736 -387 755 0 3 26 5 58 5 87 0
131 41 110 103 -14 38 -42 50 -119 50 -67 0 -67 0 -120 50 -146 138 -382 241
-565 246 -17 1 -23 9 -28 36 -18 92 -125 149 -211 111z m-541 -1066 l147 -290
-306 0 -306 0 84 163 c47 89 114 222 151 295 37 73 70 131 75 128 4 -3 74
-136 155 -296z m1519 5 l148 -295 -305 0 -305 0 101 198 c55 108 122 241 149
295 27 53 53 97 57 97 4 -1 74 -133 155 -295z"/>
</g>
</svg>
